<svg xmlns="http://www.w3.org/2000/svg" xmlns:xlink="http://www.w3.org/1999/xlink" xmlns:lucid="lucid" width="362.35" height="357"><g transform="translate(1400.5 120.5)" lucid:page-tab-id="0_0"><path d="M-1500-500h500V500h-500z" fill="#fff"/><path d="M-1380-95a5 5 0 0 1 5-5h310a5 5 0 0 1 5 5v306a5 5 0 0 1-5 5h-310a5 5 0 0 1-5-5z" fill="#fff"/><path d="M-1380-60v-35a5 5 0 0 1 5-5h310a5 5 0 0 1 5 5v35" fill="#dedeff"/><path d="M-1380-95a5 5 0 0 1 5-5h310a5 5 0 0 1 5 5v306a5 5 0 0 1-5 5h-310a5 5 0 0 1-5-5zM-1380-60h320M-1320-60v276" stroke="#282c33" fill="none"/><use xlink:href="#a" transform="matrix(1,0,0,1,-1370,-100) translate(107.07499999999999 23.6)"/><use xlink:href="#b" transform="matrix(1,0,0,1,-1375,-57.5) translate(13 17.1)"/><use xlink:href="#c" transform="matrix(1,0,0,1,-1315,-57.5) translate(0 17.1)"/><use xlink:href="#d" transform="matrix(1,0,0,1,-1315,-57.5) translate(105.80000000000001 17.1)"/><use xlink:href="#e" transform="matrix(1,0,0,1,-1315,-25.5) translate(0 16.799999999999997)"/><use xlink:href="#f" transform="matrix(1,0,0,1,-1315,-25.5) translate(92.75 16.799999999999997)"/><use xlink:href="#g" transform="matrix(1,0,0,1,-1315,-25.5) translate(0 38.4)"/><use xlink:href="#h" transform="matrix(1,0,0,1,-1315,-25.5) translate(42.550000000000004 38.4)"/><use xlink:href="#i" transform="matrix(1,0,0,1,-1315,27.5) translate(0 16.799999999999997)"/><use xlink:href="#j" transform="matrix(1,0,0,1,-1315,27.5) translate(91.9 16.799999999999997)"/><use xlink:href="#g" transform="matrix(1,0,0,1,-1315,27.5) translate(0 38.4)"/><use xlink:href="#h" transform="matrix(1,0,0,1,-1315,27.5) translate(42.550000000000004 38.4)"/><g><use xlink:href="#k" transform="matrix(1,0,0,1,-1315,80.5) translate(0 16.799999999999997)"/><use xlink:href="#l" transform="matrix(1,0,0,1,-1315,80.5) translate(125.85000000000001 16.799999999999997)"/><use xlink:href="#g" transform="matrix(1,0,0,1,-1315,80.5) translate(0 38.4)"/><use xlink:href="#m" transform="matrix(1,0,0,1,-1315,80.5) translate(42.550000000000004 38.4)"/><use xlink:href="#n" transform="matrix(1,0,0,1,-1315,80.5) translate(97.80000000000001 38.4)"/></g><g><use xlink:href="#o" transform="matrix(1,0,0,1,-1315,133.5) translate(0 16.799999999999997)"/><use xlink:href="#p" transform="matrix(1,0,0,1,-1315,133.5) translate(98.9 16.799999999999997)"/><use xlink:href="#g" transform="matrix(1,0,0,1,-1315,133.5) translate(0 38.4)"/><use xlink:href="#m" transform="matrix(1,0,0,1,-1315,133.5) translate(42.550000000000004 38.4)"/><use xlink:href="#n" transform="matrix(1,0,0,1,-1315,133.5) translate(97.80000000000001 38.4)"/></g><g><use xlink:href="#q" transform="matrix(1,0,0,1,-1375,186.5) translate(13.524999999999999 17.1)"/></g><g><use xlink:href="#r" transform="matrix(1,0,0,1,-1315,186.5) translate(0 17.1)"/><use xlink:href="#n" transform="matrix(1,0,0,1,-1315,186.5) translate(75.2 17.1)"/></g><defs><path d="M212-179c-10-28-35-45-73-45-59 0-87 40-87 99 0 60 29 101 89 101 43 0 62-24 78-52l27 14C228-24 195 4 139 4 59 4 22-46 18-125c-6-104 99-153 187-111 19 9 31 26 39 46" id="s"/><path d="M84 4C-5 8 30-112 23-190h32v120c0 31 7 50 39 49 72-2 45-101 50-169h31l1 190h-30c-1-10 1-25-2-33-11 22-28 36-60 37" id="t"/><path d="M135-143c-3-34-86-38-87 0 15 53 115 12 119 90S17 21 10-45l28-5c4 36 97 45 98 0-10-56-113-15-118-90-4-57 82-63 122-42 12 7 21 19 24 35" id="u"/><path d="M59-47c-2 24 18 29 38 22v24C64 9 27 4 27-40v-127H5v-23h24l9-43h21v43h35v23H59v120" id="v"/><path d="M100-194c62-1 85 37 85 99 1 63-27 99-86 99S16-35 15-95c0-66 28-99 85-99zM99-20c44 1 53-31 53-75 0-43-8-75-51-75s-53 32-53 75 10 74 51 75" id="w"/><path d="M210-169c-67 3-38 105-44 169h-31v-121c0-29-5-50-35-48C34-165 62-65 56 0H25l-1-190h30c1 10-1 24 2 32 10-44 99-50 107 0 11-21 27-35 58-36 85-2 47 119 55 194h-31v-121c0-29-5-49-35-48" id="x"/><path d="M100-194c63 0 86 42 84 106H49c0 40 14 67 53 68 26 1 43-12 49-29l28 8c-11 28-37 45-77 45C44 4 14-33 15-96c1-61 26-98 85-98zm52 81c6-60-76-77-97-28-3 7-6 17-6 28h103" id="y"/><path d="M114-163C36-179 61-72 57 0H25l-1-190h30c1 12-1 29 2 39 6-27 23-49 58-41v29" id="z"/><g id="a"><use transform="matrix(0.05,0,0,0.05,0,0)" xlink:href="#s"/><use transform="matrix(0.05,0,0,0.05,12.950000000000001,0)" xlink:href="#t"/><use transform="matrix(0.05,0,0,0.05,22.950000000000003,0)" xlink:href="#u"/><use transform="matrix(0.05,0,0,0.05,31.950000000000003,0)" xlink:href="#v"/><use transform="matrix(0.05,0,0,0.05,36.95,0)" xlink:href="#w"/><use transform="matrix(0.05,0,0,0.05,46.95,0)" xlink:href="#x"/><use transform="matrix(0.05,0,0,0.05,61.900000000000006,0)" xlink:href="#y"/><use transform="matrix(0.05,0,0,0.05,71.9,0)" xlink:href="#z"/><use transform="matrix(0.05,0,0,0.05,77.85000000000001,0)" xlink:href="#u"/></g><path d="M30-248c87 1 191-15 191 75 0 78-77 80-158 76V0H30v-248zm33 125c57 0 124 11 124-50 0-59-68-47-124-48v98" id="A"/><path d="M194 0L95-120 63-95V0H30v-248h33v124l119-124h40L117-140 236 0h-42" id="B"/><g id="b"><use transform="matrix(0.05,0,0,0.05,0,0)" xlink:href="#A"/><use transform="matrix(0.05,0,0,0.05,12,0)" xlink:href="#B"/></g><path fill="#333" d="M212-179c-10-28-35-45-73-45-59 0-87 40-87 99 0 60 29 101 89 101 43 0 62-24 78-52l27 14C228-24 195 4 139 4 59 4 22-46 18-125c-6-104 99-153 187-111 19 9 31 26 39 46" id="C"/><path fill="#333" d="M84 4C-5 8 30-112 23-190h32v120c0 31 7 50 39 49 72-2 45-101 50-169h31l1 190h-30c-1-10 1-25-2-33-11 22-28 36-60 37" id="D"/><path fill="#333" d="M135-143c-3-34-86-38-87 0 15 53 115 12 119 90S17 21 10-45l28-5c4 36 97 45 98 0-10-56-113-15-118-90-4-57 82-63 122-42 12 7 21 19 24 35" id="E"/><path fill="#333" d="M59-47c-2 24 18 29 38 22v24C64 9 27 4 27-40v-127H5v-23h24l9-43h21v43h35v23H59v120" id="F"/><path fill="#333" d="M100-194c62-1 85 37 85 99 1 63-27 99-86 99S16-35 15-95c0-66 28-99 85-99zM99-20c44 1 53-31 53-75 0-43-8-75-51-75s-53 32-53 75 10 74 51 75" id="G"/><path fill="#333" d="M210-169c-67 3-38 105-44 169h-31v-121c0-29-5-50-35-48C34-165 62-65 56 0H25l-1-190h30c1 10-1 24 2 32 10-44 99-50 107 0 11-21 27-35 58-36 85-2 47 119 55 194h-31v-121c0-29-5-49-35-48" id="H"/><path fill="#333" d="M100-194c63 0 86 42 84 106H49c0 40 14 67 53 68 26 1 43-12 49-29l28 8c-11 28-37 45-77 45C44 4 14-33 15-96c1-61 26-98 85-98zm52 81c6-60-76-77-97-28-3 7-6 17-6 28h103" id="I"/><path fill="#333" d="M114-163C36-179 61-72 57 0H25l-1-190h30c1 12-1 29 2 39 6-27 23-49 58-41v29" id="J"/><path fill="#333" d="M33 0v-248h34V0H33" id="K"/><path fill="#333" d="M30-248c118-7 216 8 213 122C240-48 200 0 122 0H30v-248zM63-27c89 8 146-16 146-99s-60-101-146-95v194" id="L"/><g id="c"><use transform="matrix(0.05,0,0,0.05,0,0)" xlink:href="#C"/><use transform="matrix(0.05,0,0,0.05,12.950000000000001,0)" xlink:href="#D"/><use transform="matrix(0.05,0,0,0.05,22.950000000000003,0)" xlink:href="#E"/><use transform="matrix(0.05,0,0,0.05,31.950000000000003,0)" xlink:href="#F"/><use transform="matrix(0.05,0,0,0.05,36.95,0)" xlink:href="#G"/><use transform="matrix(0.05,0,0,0.05,46.95,0)" xlink:href="#H"/><use transform="matrix(0.05,0,0,0.05,61.900000000000006,0)" xlink:href="#I"/><use transform="matrix(0.05,0,0,0.05,71.9,0)" xlink:href="#J"/><use transform="matrix(0.05,0,0,0.05,77.85000000000001,0)" xlink:href="#K"/><use transform="matrix(0.05,0,0,0.05,82.85000000000001,0)" xlink:href="#L"/></g><path fill="#333" d="M190 0L58-211 59 0H30v-248h39L202-35l-2-213h31V0h-41" id="M"/><path fill="#333" d="M232-93c-1 65-40 97-104 97C67 4 28-28 28-90v-158h33c8 89-33 224 67 224 102 0 64-133 71-224h33v155" id="N"/><path fill="#333" d="M240 0l2-218c-23 76-54 145-80 218h-23L58-218 59 0H30v-248h44l77 211c21-75 51-140 76-211h43V0h-30" id="O"/><path fill="#333" d="M160-131c35 5 61 23 61 61C221 17 115-2 30 0v-248c76 3 177-17 177 60 0 33-19 50-47 57zm-97-11c50-1 110 9 110-42 0-47-63-36-110-37v79zm0 115c55-2 124 14 124-45 0-56-70-42-124-44v89" id="P"/><path fill="#333" d="M30 0v-248h187v28H63v79h144v27H63v87h162V0H30" id="Q"/><path fill="#333" d="M233-177c-1 41-23 64-60 70L243 0h-38l-65-103H63V0H30v-248c88 3 205-21 203 71zM63-129c60-2 137 13 137-47 0-61-80-42-137-45v92" id="R"/><path fill="#333" d="M87 75C49 33 22-17 22-94c0-76 28-126 65-167h31c-38 41-64 92-64 168S80 34 118 75H87" id="S"/><path fill="#333" d="M110-160c48 1 74 30 74 79 0 53-28 85-80 85-65 0-83-55-86-122-5-90 50-162 133-122 14 7 22 21 27 39l-31 6c-5-40-67-38-82-6-9 19-15 44-15 74 11-20 30-34 60-33zm-7 138c34 0 49-23 49-58s-16-56-50-56c-29 0-50 16-49 49 1 36 15 65 50 65" id="T"/><path fill="#333" d="M33-261c38 41 65 92 65 168S71 34 33 75H2C39 34 66-17 66-93S39-220 2-261h31" id="U"/><g id="d"><use transform="matrix(0.05,0,0,0.05,0,0)" xlink:href="#M"/><use transform="matrix(0.05,0,0,0.05,12.950000000000001,0)" xlink:href="#N"/><use transform="matrix(0.05,0,0,0.05,25.900000000000002,0)" xlink:href="#O"/><use transform="matrix(0.05,0,0,0.05,40.85,0)" xlink:href="#P"/><use transform="matrix(0.05,0,0,0.05,52.85,0)" xlink:href="#Q"/><use transform="matrix(0.05,0,0,0.05,64.85,0)" xlink:href="#R"/><use transform="matrix(0.05,0,0,0.05,77.8,0)" xlink:href="#S"/><use transform="matrix(0.05,0,0,0.05,83.75,0)" xlink:href="#T"/><use transform="matrix(0.05,0,0,0.05,93.75,0)" xlink:href="#U"/></g><path fill="#333" d="M63-220v92h138v28H63V0H30v-248h175v28H63" id="V"/><path fill="#333" d="M24-231v-30h32v30H24zM24 0v-190h32V0H24" id="W"/><path fill="#333" d="M141-36C126-15 110 5 73 4 37 3 15-17 15-53c-1-64 63-63 125-63 3-35-9-54-41-54-24 1-41 7-42 31l-33-3c5-37 33-52 76-52 45 0 72 20 72 64v82c-1 20 7 32 28 27v20c-31 9-61-2-59-35zM48-53c0 20 12 33 32 33 41-3 63-29 60-74-43 2-92-5-92 41" id="X"/><g id="e"><use transform="matrix(0.05,0,0,0.05,0,0)" xlink:href="#V"/><use transform="matrix(0.05,0,0,0.05,10.950000000000001,0)" xlink:href="#W"/><use transform="matrix(0.05,0,0,0.05,14.9,0)" xlink:href="#J"/><use transform="matrix(0.05,0,0,0.05,20.85,0)" xlink:href="#E"/><use transform="matrix(0.05,0,0,0.05,29.85,0)" xlink:href="#F"/><use transform="matrix(0.05,0,0,0.05,34.85,0)" xlink:href="#M"/><use transform="matrix(0.05,0,0,0.05,47.800000000000004,0)" xlink:href="#X"/><use transform="matrix(0.05,0,0,0.05,57.800000000000004,0)" xlink:href="#H"/><use transform="matrix(0.05,0,0,0.05,72.75,0)" xlink:href="#I"/></g><path fill="#333" d="M137 0h-34L2-248h35l83 218 83-218h36" id="Y"/><path fill="#333" d="M205 0l-28-72H64L36 0H1l101-248h38L239 0h-34zm-38-99l-47-123c-12 45-31 82-46 123h93" id="Z"/><path fill="#333" d="M197 0v-115H63V0H30v-248h33v105h134v-105h34V0h-34" id="aa"/><path fill="#333" d="M126-127c33 6 58 20 58 59 0 88-139 92-164 29-3-8-5-16-6-25l32-3c6 27 21 44 54 44 32 0 52-15 52-46 0-38-36-46-79-43v-28c39 1 72-4 72-42 0-27-17-43-46-43-28 0-47 15-49 41l-32-3c6-42 35-63 81-64 48-1 79 21 79 65 0 36-21 52-52 59" id="ab"/><path fill="#333" d="M101-251c68 0 85 55 85 127S166 4 100 4C33 4 14-52 14-124c0-73 17-127 87-127zm-1 229c47 0 54-49 54-102s-4-102-53-102c-51 0-55 48-55 102 0 53 5 102 54 102" id="ac"/><g id="f"><use transform="matrix(0.05,0,0,0.05,0,0)" xlink:href="#Y"/><use transform="matrix(0.05,0,0,0.05,10.65,0)" xlink:href="#Z"/><use transform="matrix(0.05,0,0,0.05,22.65,0)" xlink:href="#R"/><use transform="matrix(0.05,0,0,0.05,35.6,0)" xlink:href="#C"/><use transform="matrix(0.05,0,0,0.05,48.550000000000004,0)" xlink:href="#aa"/><use transform="matrix(0.05,0,0,0.05,61.5,0)" xlink:href="#Z"/><use transform="matrix(0.05,0,0,0.05,73.5,0)" xlink:href="#R"/><use transform="matrix(0.05,0,0,0.05,86.45,0)" xlink:href="#S"/><use transform="matrix(0.05,0,0,0.05,92.4,0)" xlink:href="#ab"/><use transform="matrix(0.05,0,0,0.05,102.4,0)" xlink:href="#ac"/><use transform="matrix(0.05,0,0,0.05,112.4,0)" xlink:href="#U"/></g><path fill="#333" d="M140-251c81 0 123 46 123 126C263-46 219 4 140 4 59 4 17-45 17-125s42-126 123-126zm0 227c63 0 89-41 89-101s-29-99-89-99c-61 0-89 39-89 99S79-25 140-24" id="ad"/><path fill="#333" d="M127-220V0H93v-220H8v-28h204v28h-85" id="ae"/><g id="g"><use transform="matrix(0.05,0,0,0.05,0,0)" xlink:href="#M"/><use transform="matrix(0.05,0,0,0.05,12.950000000000001,0)" xlink:href="#ad"/><use transform="matrix(0.05,0,0,0.05,26.950000000000003,0)" xlink:href="#ae"/></g><path fill="#333" d="M30 0v-248h33v221h125V0H30" id="af"/><g id="h"><use transform="matrix(0.05,0,0,0.05,0,0)" xlink:href="#M"/><use transform="matrix(0.05,0,0,0.05,12.950000000000001,0)" xlink:href="#N"/><use transform="matrix(0.05,0,0,0.05,25.900000000000002,0)" xlink:href="#af"/><use transform="matrix(0.05,0,0,0.05,35.900000000000006,0)" xlink:href="#af"/></g><g id="i"><use transform="matrix(0.05,0,0,0.05,0,0)" xlink:href="#af"/><use transform="matrix(0.05,0,0,0.05,10,0)" xlink:href="#X"/><use transform="matrix(0.05,0,0,0.05,20,0)" xlink:href="#E"/><use transform="matrix(0.05,0,0,0.05,29,0)" xlink:href="#F"/><use transform="matrix(0.05,0,0,0.05,34,0)" xlink:href="#M"/><use transform="matrix(0.05,0,0,0.05,46.95,0)" xlink:href="#X"/><use transform="matrix(0.05,0,0,0.05,56.95,0)" xlink:href="#H"/><use transform="matrix(0.05,0,0,0.05,71.9,0)" xlink:href="#I"/></g><g id="j"><use transform="matrix(0.05,0,0,0.05,0,0)" xlink:href="#Y"/><use transform="matrix(0.05,0,0,0.05,10.65,0)" xlink:href="#Z"/><use transform="matrix(0.05,0,0,0.05,22.65,0)" xlink:href="#R"/><use transform="matrix(0.05,0,0,0.05,35.6,0)" xlink:href="#C"/><use transform="matrix(0.05,0,0,0.05,48.550000000000004,0)" xlink:href="#aa"/><use transform="matrix(0.05,0,0,0.05,61.5,0)" xlink:href="#Z"/><use transform="matrix(0.05,0,0,0.05,73.5,0)" xlink:href="#R"/><use transform="matrix(0.05,0,0,0.05,86.45,0)" xlink:href="#S"/><use transform="matrix(0.05,0,0,0.05,92.4,0)" xlink:href="#ab"/><use transform="matrix(0.05,0,0,0.05,102.4,0)" xlink:href="#ac"/><use transform="matrix(0.05,0,0,0.05,112.4,0)" xlink:href="#U"/></g><path fill="#333" d="M30-248c87 1 191-15 191 75 0 78-77 80-158 76V0H30v-248zm33 125c57 0 124 11 124-50 0-59-68-47-124-48v98" id="ag"/><path fill="#333" d="M106-169C34-169 62-67 57 0H25v-261h32l-1 103c12-21 28-36 61-36 89 0 53 116 60 194h-32v-121c2-32-8-49-39-48" id="ah"/><path fill="#333" d="M117-194c89-4 53 116 60 194h-32v-121c0-31-8-49-39-48C34-167 62-67 57 0H25l-1-190h30c1 10-1 24 2 32 11-22 29-35 61-36" id="ai"/><path fill="#333" d="M115-194c53 0 69 39 70 98 0 66-23 100-70 100C84 3 66-7 56-30L54 0H23l1-261h32v101c10-23 28-34 59-34zm-8 174c40 0 45-34 45-75 0-40-5-75-45-74-42 0-51 32-51 76 0 43 10 73 51 73" id="aj"/><g id="k"><use transform="matrix(0.05,0,0,0.05,0,0)" xlink:href="#ag"/><use transform="matrix(0.05,0,0,0.05,12,0)" xlink:href="#ah"/><use transform="matrix(0.05,0,0,0.05,22,0)" xlink:href="#G"/><use transform="matrix(0.05,0,0,0.05,32,0)" xlink:href="#ai"/><use transform="matrix(0.05,0,0,0.05,42,0)" xlink:href="#I"/><use transform="matrix(0.05,0,0,0.05,52,0)" xlink:href="#M"/><use transform="matrix(0.05,0,0,0.05,64.95,0)" xlink:href="#D"/><use transform="matrix(0.05,0,0,0.05,74.95,0)" xlink:href="#H"/><use transform="matrix(0.05,0,0,0.05,89.9,0)" xlink:href="#aj"/><use transform="matrix(0.05,0,0,0.05,99.9,0)" xlink:href="#I"/><use transform="matrix(0.05,0,0,0.05,109.9,0)" xlink:href="#J"/></g><path fill="#333" d="M27 0v-27h64v-190l-56 39v-29l58-41h29v221h61V0H27" id="ak"/><g id="l"><use transform="matrix(0.05,0,0,0.05,0,0)" xlink:href="#Y"/><use transform="matrix(0.05,0,0,0.05,10.65,0)" xlink:href="#Z"/><use transform="matrix(0.05,0,0,0.05,22.65,0)" xlink:href="#R"/><use transform="matrix(0.05,0,0,0.05,35.6,0)" xlink:href="#C"/><use transform="matrix(0.05,0,0,0.05,48.550000000000004,0)" xlink:href="#aa"/><use transform="matrix(0.05,0,0,0.05,61.5,0)" xlink:href="#Z"/><use transform="matrix(0.05,0,0,0.05,73.5,0)" xlink:href="#R"/><use transform="matrix(0.05,0,0,0.05,86.45,0)" xlink:href="#S"/><use transform="matrix(0.05,0,0,0.05,92.4,0)" xlink:href="#ak"/><use transform="matrix(0.05,0,0,0.05,102.4,0)" xlink:href="#ac"/><use transform="matrix(0.05,0,0,0.05,112.4,0)" xlink:href="#U"/></g><g id="m"><use transform="matrix(0.05,0,0,0.05,0,0)" xlink:href="#M"/><use transform="matrix(0.05,0,0,0.05,12.950000000000001,0)" xlink:href="#N"/><use transform="matrix(0.05,0,0,0.05,25.900000000000002,0)" xlink:href="#af"/><use transform="matrix(0.05,0,0,0.05,35.900000000000006,0)" xlink:href="#af"/></g><path fill="#333" d="M140-251c81 0 123 46 123 126C263-53 228-8 163 1c7 30 30 48 69 40v23c-55 16-95-15-103-61C56-3 17-48 17-125c0-80 42-126 123-126zm0 227c63 0 89-41 89-101s-29-99-89-99c-61 0-89 39-89 99S79-25 140-24" id="al"/><g id="n"><use transform="matrix(0.05,0,0,0.05,0,0)" xlink:href="#N"/><use transform="matrix(0.05,0,0,0.05,12.950000000000001,0)" xlink:href="#M"/><use transform="matrix(0.05,0,0,0.05,25.900000000000002,0)" xlink:href="#K"/><use transform="matrix(0.05,0,0,0.05,30.900000000000002,0)" xlink:href="#al"/><use transform="matrix(0.05,0,0,0.05,44.900000000000006,0)" xlink:href="#N"/><use transform="matrix(0.05,0,0,0.05,57.85,0)" xlink:href="#Q"/></g><path fill="#333" d="M115-194c55 1 70 41 70 98S169 2 115 4C84 4 66-9 55-30l1 105H24l-1-265h31l2 30c10-21 28-34 59-34zm-8 174c40 0 45-34 45-75s-6-73-45-74c-42 0-51 32-51 76 0 43 10 73 51 73" id="am"/><g id="o"><use transform="matrix(0.05,0,0,0.05,0,0)" xlink:href="#ag"/><use transform="matrix(0.05,0,0,0.05,12,0)" xlink:href="#X"/><use transform="matrix(0.05,0,0,0.05,22,0)" xlink:href="#E"/><use transform="matrix(0.05,0,0,0.05,31,0)" xlink:href="#E"/><use transform="matrix(0.05,0,0,0.05,40,0)" xlink:href="#am"/><use transform="matrix(0.05,0,0,0.05,50,0)" xlink:href="#G"/><use transform="matrix(0.05,0,0,0.05,60,0)" xlink:href="#J"/><use transform="matrix(0.05,0,0,0.05,65.95,0)" xlink:href="#F"/><use transform="matrix(0.05,0,0,0.05,70.95,0)" xlink:href="#K"/><use transform="matrix(0.05,0,0,0.05,75.95,0)" xlink:href="#L"/></g><path fill="#333" d="M155-56V0h-30v-56H8v-25l114-167h33v167h35v25h-35zm-30-156c-27 46-58 90-88 131h88v-131" id="an"/><g id="p"><use transform="matrix(0.05,0,0,0.05,0,0)" xlink:href="#Y"/><use transform="matrix(0.05,0,0,0.05,10.65,0)" xlink:href="#Z"/><use transform="matrix(0.05,0,0,0.05,22.65,0)" xlink:href="#R"/><use transform="matrix(0.05,0,0,0.05,35.6,0)" xlink:href="#C"/><use transform="matrix(0.05,0,0,0.05,48.550000000000004,0)" xlink:href="#aa"/><use transform="matrix(0.05,0,0,0.05,61.5,0)" xlink:href="#Z"/><use transform="matrix(0.05,0,0,0.05,73.5,0)" xlink:href="#R"/><use transform="matrix(0.05,0,0,0.05,86.45,0)" xlink:href="#S"/><use transform="matrix(0.05,0,0,0.05,92.4,0)" xlink:href="#an"/><use transform="matrix(0.05,0,0,0.05,102.4,0)" xlink:href="#ac"/><use transform="matrix(0.05,0,0,0.05,112.4,0)" xlink:href="#U"/></g><path d="M63-220v92h138v28H63V0H30v-248h175v28H63" id="ao"/><g id="q"><use transform="matrix(0.05,0,0,0.05,0,0)" xlink:href="#ao"/><use transform="matrix(0.05,0,0,0.05,10.950000000000001,0)" xlink:href="#B"/></g><path fill="#333" d="M96-169c-40 0-48 33-48 73s9 75 48 75c24 0 41-14 43-38l32 2c-6 37-31 61-74 61-59 0-76-41-82-99-10-93 101-131 147-64 4 7 5 14 7 22l-32 3c-4-21-16-35-41-35" id="ap"/><path fill="#333" d="M143 0L79-87 56-68V0H24v-261h32v163l83-92h37l-77 82L181 0h-38" id="aq"/><g id="r"><use transform="matrix(0.05,0,0,0.05,0,0)" xlink:href="#ae"/><use transform="matrix(0.05,0,0,0.05,10.3,0)" xlink:href="#W"/><use transform="matrix(0.05,0,0,0.05,14.25,0)" xlink:href="#ap"/><use transform="matrix(0.05,0,0,0.05,23.25,0)" xlink:href="#aq"/><use transform="matrix(0.05,0,0,0.05,32.25,0)" xlink:href="#I"/><use transform="matrix(0.05,0,0,0.05,42.25,0)" xlink:href="#F"/><use transform="matrix(0.05,0,0,0.05,47.25,0)" xlink:href="#K"/><use transform="matrix(0.05,0,0,0.05,52.25,0)" xlink:href="#L"/></g></defs></g></svg>