<svg xmlns="http://www.w3.org/2000/svg" xmlns:xlink="http://www.w3.org/1999/xlink" xmlns:lucid="lucid" width="333.8" height="325"><g transform="translate(-386.70000000000016 -81.4333333333334)" lucid:page-tab-id="0_0"><path d="M0 0h1000v500H0z" fill="#fff"/><path d="M407.2 106.93a5 5 0 0 1 5-5H695a5 5 0 0 1 5 5v274a5 5 0 0 1-5 5H412.2a5 5 0 0 1-5-5z" fill="#fff"/><path d="M407.2 141.93v-35a5 5 0 0 1 5-5H695a5 5 0 0 1 5 5v35" fill="#fe7070"/><path d="M407.2 106.93a5 5 0 0 1 5-5H695a5 5 0 0 1 5 5v274a5 5 0 0 1-5 5H412.2a5 5 0 0 1-5-5zM407.2 141.93H700M467.2 141.93v244" stroke="#282c33" fill="none"/><use xlink:href="#a" transform="matrix(1,0,0,1,417.20000000000016,101.9333333333334) translate(111.025 23.6)"/><use xlink:href="#b" transform="matrix(1,0,0,1,412.20000000000016,144.4333333333334) translate(13 17.1)"/><use xlink:href="#c" transform="matrix(1,0,0,1,472.20000000000016,144.4333333333334) translate(0 17.1)"/><use xlink:href="#d" transform="matrix(1,0,0,1,472.20000000000016,144.4333333333334) translate(69.9 17.1)"/><use xlink:href="#e" transform="matrix(1,0,0,1,472.20000000000016,176.4333333333334) translate(0 16.799999999999997)"/><use xlink:href="#f" transform="matrix(1,0,0,1,472.20000000000016,176.4333333333334) translate(110.80000000000001 16.799999999999997)"/><use xlink:href="#g" transform="matrix(1,0,0,1,472.20000000000016,176.4333333333334) translate(0 38.4)"/><use xlink:href="#h" transform="matrix(1,0,0,1,472.20000000000016,176.4333333333334) translate(42.550000000000004 38.4)"/><g><use xlink:href="#i" transform="matrix(1,0,0,1,472.20000000000016,229.4333333333334) translate(0 16.799999999999997)"/><use xlink:href="#f" transform="matrix(1,0,0,1,472.20000000000016,229.4333333333334) translate(100 16.799999999999997)"/><use xlink:href="#g" transform="matrix(1,0,0,1,472.20000000000016,229.4333333333334) translate(0 38.4)"/><use xlink:href="#h" transform="matrix(1,0,0,1,472.20000000000016,229.4333333333334) translate(42.550000000000004 38.4)"/></g><g><use xlink:href="#j" transform="matrix(1,0,0,1,472.20000000000016,282.4333333333334) translate(0 16.799999999999997)"/><use xlink:href="#k" transform="matrix(1,0,0,1,472.20000000000016,282.4333333333334) translate(88.9 16.799999999999997)"/><use xlink:href="#g" transform="matrix(1,0,0,1,472.20000000000016,282.4333333333334) translate(0 38.4)"/><use xlink:href="#h" transform="matrix(1,0,0,1,472.20000000000016,282.4333333333334) translate(42.550000000000004 38.4)"/></g><g><use xlink:href="#l" transform="matrix(1,0,0,1,472.20000000000016,335.4333333333334) translate(0 16.799999999999997)"/><use xlink:href="#m" transform="matrix(1,0,0,1,472.20000000000016,335.4333333333334) translate(0 38.4)"/><use xlink:href="#g" transform="matrix(1,0,0,1,472.20000000000016,335.4333333333334) translate(123.35000000000001 38.4)"/><use xlink:href="#h" transform="matrix(1,0,0,1,472.20000000000016,335.4333333333334) translate(165.9 38.4)"/></g><defs><path d="M233-177c-1 41-23 64-60 70L243 0h-38l-65-103H63V0H30v-248c88 3 205-21 203 71zM63-129c60-2 137 13 137-47 0-61-80-42-137-45v92" id="n"/><path d="M141-36C126-15 110 5 73 4 37 3 15-17 15-53c-1-64 63-63 125-63 3-35-9-54-41-54-24 1-41 7-42 31l-33-3c5-37 33-52 76-52 45 0 72 20 72 64v82c-1 20 7 32 28 27v20c-31 9-61-2-59-35zM48-53c0 20 12 33 32 33 41-3 63-29 60-74-43 2-92-5-92 41" id="o"/><path d="M96-169c-40 0-48 33-48 73s9 75 48 75c24 0 41-14 43-38l32 2c-6 37-31 61-74 61-59 0-76-41-82-99-10-93 101-131 147-64 4 7 5 14 7 22l-32 3c-4-21-16-35-41-35" id="p"/><path d="M100-194c63 0 86 42 84 106H49c0 40 14 67 53 68 26 1 43-12 49-29l28 8c-11 28-37 45-77 45C44 4 14-33 15-96c1-61 26-98 85-98zm52 81c6-60-76-77-97-28-3 7-6 17-6 28h103" id="q"/><path d="M135-143c-3-34-86-38-87 0 15 53 115 12 119 90S17 21 10-45l28-5c4 36 97 45 98 0-10-56-113-15-118-90-4-57 82-63 122-42 12 7 21 19 24 35" id="r"/><g id="a"><use transform="matrix(0.05,0,0,0.05,0,0)" xlink:href="#n"/><use transform="matrix(0.05,0,0,0.05,12.950000000000001,0)" xlink:href="#o"/><use transform="matrix(0.05,0,0,0.05,22.950000000000003,0)" xlink:href="#p"/><use transform="matrix(0.05,0,0,0.05,31.950000000000003,0)" xlink:href="#q"/><use transform="matrix(0.05,0,0,0.05,41.95,0)" xlink:href="#r"/></g><path d="M30-248c87 1 191-15 191 75 0 78-77 80-158 76V0H30v-248zm33 125c57 0 124 11 124-50 0-59-68-47-124-48v98" id="s"/><path d="M194 0L95-120 63-95V0H30v-248h33v124l119-124h40L117-140 236 0h-42" id="t"/><g id="b"><use transform="matrix(0.05,0,0,0.05,0,0)" xlink:href="#s"/><use transform="matrix(0.05,0,0,0.05,12,0)" xlink:href="#t"/></g><path fill="#333" d="M233-177c-1 41-23 64-60 70L243 0h-38l-65-103H63V0H30v-248c88 3 205-21 203 71zM63-129c60-2 137 13 137-47 0-61-80-42-137-45v92" id="u"/><path fill="#333" d="M141-36C126-15 110 5 73 4 37 3 15-17 15-53c-1-64 63-63 125-63 3-35-9-54-41-54-24 1-41 7-42 31l-33-3c5-37 33-52 76-52 45 0 72 20 72 64v82c-1 20 7 32 28 27v20c-31 9-61-2-59-35zM48-53c0 20 12 33 32 33 41-3 63-29 60-74-43 2-92-5-92 41" id="v"/><path fill="#333" d="M96-169c-40 0-48 33-48 73s9 75 48 75c24 0 41-14 43-38l32 2c-6 37-31 61-74 61-59 0-76-41-82-99-10-93 101-131 147-64 4 7 5 14 7 22l-32 3c-4-21-16-35-41-35" id="w"/><path fill="#333" d="M100-194c63 0 86 42 84 106H49c0 40 14 67 53 68 26 1 43-12 49-29l28 8c-11 28-37 45-77 45C44 4 14-33 15-96c1-61 26-98 85-98zm52 81c6-60-76-77-97-28-3 7-6 17-6 28h103" id="x"/><path fill="#333" d="M33 0v-248h34V0H33" id="y"/><path fill="#333" d="M30-248c118-7 216 8 213 122C240-48 200 0 122 0H30v-248zM63-27c89 8 146-16 146-99s-60-101-146-95v194" id="z"/><g id="c"><use transform="matrix(0.05,0,0,0.05,0,0)" xlink:href="#u"/><use transform="matrix(0.05,0,0,0.05,12.950000000000001,0)" xlink:href="#v"/><use transform="matrix(0.05,0,0,0.05,22.950000000000003,0)" xlink:href="#w"/><use transform="matrix(0.05,0,0,0.05,31.950000000000003,0)" xlink:href="#x"/><use transform="matrix(0.05,0,0,0.05,41.95,0)" xlink:href="#y"/><use transform="matrix(0.05,0,0,0.05,46.95,0)" xlink:href="#z"/></g><path fill="#333" d="M190 0L58-211 59 0H30v-248h39L202-35l-2-213h31V0h-41" id="A"/><path fill="#333" d="M232-93c-1 65-40 97-104 97C67 4 28-28 28-90v-158h33c8 89-33 224 67 224 102 0 64-133 71-224h33v155" id="B"/><path fill="#333" d="M240 0l2-218c-23 76-54 145-80 218h-23L58-218 59 0H30v-248h44l77 211c21-75 51-140 76-211h43V0h-30" id="C"/><path fill="#333" d="M160-131c35 5 61 23 61 61C221 17 115-2 30 0v-248c76 3 177-17 177 60 0 33-19 50-47 57zm-97-11c50-1 110 9 110-42 0-47-63-36-110-37v79zm0 115c55-2 124 14 124-45 0-56-70-42-124-44v89" id="D"/><path fill="#333" d="M30 0v-248h187v28H63v79h144v27H63v87h162V0H30" id="E"/><path fill="#333" d="M87 75C49 33 22-17 22-94c0-76 28-126 65-167h31c-38 41-64 92-64 168S80 34 118 75H87" id="F"/><path fill="#333" d="M64 0c3-98 48-159 88-221H18v-27h164v26C143-157 98-101 97 0H64" id="G"/><path fill="#333" d="M33-261c38 41 65 92 65 168S71 34 33 75H2C39 34 66-17 66-93S39-220 2-261h31" id="H"/><g id="d"><use transform="matrix(0.05,0,0,0.05,0,0)" xlink:href="#A"/><use transform="matrix(0.05,0,0,0.05,12.950000000000001,0)" xlink:href="#B"/><use transform="matrix(0.05,0,0,0.05,25.900000000000002,0)" xlink:href="#C"/><use transform="matrix(0.05,0,0,0.05,40.85,0)" xlink:href="#D"/><use transform="matrix(0.05,0,0,0.05,52.85,0)" xlink:href="#E"/><use transform="matrix(0.05,0,0,0.05,64.85,0)" xlink:href="#u"/><use transform="matrix(0.05,0,0,0.05,77.8,0)" xlink:href="#F"/><use transform="matrix(0.05,0,0,0.05,83.75,0)" xlink:href="#G"/><use transform="matrix(0.05,0,0,0.05,93.75,0)" xlink:href="#H"/></g><path fill="#333" d="M127-220V0H93v-220H8v-28h204v28h-85" id="I"/><path fill="#333" d="M143 0L79-87 56-68V0H24v-261h32v163l83-92h37l-77 82L181 0h-38" id="J"/><path fill="#333" d="M140-251c81 0 123 46 123 126C263-46 219 4 140 4 59 4 17-45 17-125s42-126 123-126zm0 227c63 0 89-41 89-101s-29-99-89-99c-61 0-89 39-89 99S79-25 140-24" id="K"/><path fill="#333" d="M101-234c-31-9-42 10-38 44h38v23H63V0H32v-167H5v-23h27c-7-52 17-82 69-68v24" id="L"/><path fill="#333" d="M24-231v-30h32v30H24zM24 0v-190h32V0H24" id="M"/><path fill="#333" d="M210-169c-67 3-38 105-44 169h-31v-121c0-29-5-50-35-48C34-165 62-65 56 0H25l-1-190h30c1 10-1 24 2 32 10-44 99-50 107 0 11-21 27-35 58-36 85-2 47 119 55 194h-31v-121c0-29-5-49-35-48" id="N"/><g id="e"><use transform="matrix(0.05,0,0,0.05,0,0)" xlink:href="#I"/><use transform="matrix(0.05,0,0,0.05,8.950000000000001,0)" xlink:href="#v"/><use transform="matrix(0.05,0,0,0.05,18.950000000000003,0)" xlink:href="#J"/><use transform="matrix(0.05,0,0,0.05,27.950000000000003,0)" xlink:href="#x"/><use transform="matrix(0.05,0,0,0.05,37.95,0)" xlink:href="#K"/><use transform="matrix(0.05,0,0,0.05,51.95,0)" xlink:href="#L"/><use transform="matrix(0.05,0,0,0.05,56.6,0)" xlink:href="#L"/><use transform="matrix(0.05,0,0,0.05,61.6,0)" xlink:href="#I"/><use transform="matrix(0.05,0,0,0.05,71.9,0)" xlink:href="#M"/><use transform="matrix(0.05,0,0,0.05,75.85000000000001,0)" xlink:href="#N"/><use transform="matrix(0.05,0,0,0.05,90.80000000000001,0)" xlink:href="#x"/></g><path fill="#333" d="M205 0l-28-72H64L36 0H1l101-248h38L239 0h-34zm-38-99l-47-123c-12 45-31 82-46 123h93" id="O"/><g id="f"><use transform="matrix(0.05,0,0,0.05,0,0)" xlink:href="#z"/><use transform="matrix(0.05,0,0,0.05,12.950000000000001,0)" xlink:href="#O"/><use transform="matrix(0.05,0,0,0.05,23.6,0)" xlink:href="#I"/><use transform="matrix(0.05,0,0,0.05,34.550000000000004,0)" xlink:href="#E"/><use transform="matrix(0.05,0,0,0.05,46.550000000000004,0)" xlink:href="#I"/><use transform="matrix(0.05,0,0,0.05,57.5,0)" xlink:href="#y"/><use transform="matrix(0.05,0,0,0.05,62.5,0)" xlink:href="#C"/><use transform="matrix(0.05,0,0,0.05,77.45,0)" xlink:href="#E"/></g><g id="g"><use transform="matrix(0.05,0,0,0.05,0,0)" xlink:href="#A"/><use transform="matrix(0.05,0,0,0.05,12.950000000000001,0)" xlink:href="#K"/><use transform="matrix(0.05,0,0,0.05,26.950000000000003,0)" xlink:href="#I"/></g><path fill="#333" d="M30 0v-248h33v221h125V0H30" id="P"/><g id="h"><use transform="matrix(0.05,0,0,0.05,0,0)" xlink:href="#A"/><use transform="matrix(0.05,0,0,0.05,12.950000000000001,0)" xlink:href="#B"/><use transform="matrix(0.05,0,0,0.05,25.900000000000002,0)" xlink:href="#P"/><use transform="matrix(0.05,0,0,0.05,35.900000000000006,0)" xlink:href="#P"/></g><path fill="#333" d="M114-163C36-179 61-72 57 0H25l-1-190h30c1 12-1 29 2 39 6-27 23-49 58-41v29" id="Q"/><path fill="#333" d="M108 0H70L1-190h34L89-25l56-165h34" id="R"/><path fill="#333" d="M24 0v-261h32V0H24" id="S"/><g id="i"><use transform="matrix(0.05,0,0,0.05,0,0)" xlink:href="#O"/><use transform="matrix(0.05,0,0,0.05,12,0)" xlink:href="#Q"/><use transform="matrix(0.05,0,0,0.05,17.95,0)" xlink:href="#Q"/><use transform="matrix(0.05,0,0,0.05,23.9,0)" xlink:href="#M"/><use transform="matrix(0.05,0,0,0.05,27.849999999999994,0)" xlink:href="#R"/><use transform="matrix(0.05,0,0,0.05,36.849999999999994,0)" xlink:href="#v"/><use transform="matrix(0.05,0,0,0.05,46.849999999999994,0)" xlink:href="#S"/><use transform="matrix(0.05,0,0,0.05,50.8,0)" xlink:href="#I"/><use transform="matrix(0.05,0,0,0.05,61.1,0)" xlink:href="#M"/><use transform="matrix(0.05,0,0,0.05,65.05,0)" xlink:href="#N"/><use transform="matrix(0.05,0,0,0.05,80,0)" xlink:href="#x"/></g><path fill="#333" d="M185-189c-5-48-123-54-124 2 14 75 158 14 163 119 3 78-121 87-175 55-17-10-28-26-33-46l33-7c5 56 141 63 141-1 0-78-155-14-162-118-5-82 145-84 179-34 5 7 8 16 11 25" id="T"/><path fill="#333" d="M59-47c-2 24 18 29 38 22v24C64 9 27 4 27-40v-127H5v-23h24l9-43h21v43h35v23H59v120" id="U"/><path fill="#333" d="M30-248c87 1 191-15 191 75 0 78-77 80-158 76V0H30v-248zm33 125c57 0 124 11 124-50 0-59-68-47-124-48v98" id="V"/><path fill="#333" d="M100-194c62-1 85 37 85 99 1 63-27 99-86 99S16-35 15-95c0-66 28-99 85-99zM99-20c44 1 53-31 53-75 0-43-8-75-51-75s-53 32-53 75 10 74 51 75" id="W"/><path fill="#333" d="M117-194c89-4 53 116 60 194h-32v-121c0-31-8-49-39-48C34-167 62-67 57 0H25l-1-190h30c1 10-1 24 2 32 11-22 29-35 61-36" id="X"/><g id="j"><use transform="matrix(0.05,0,0,0.05,0,0)" xlink:href="#T"/><use transform="matrix(0.05,0,0,0.05,12,0)" xlink:href="#U"/><use transform="matrix(0.05,0,0,0.05,17,0)" xlink:href="#v"/><use transform="matrix(0.05,0,0,0.05,27,0)" xlink:href="#Q"/><use transform="matrix(0.05,0,0,0.05,32.95,0)" xlink:href="#U"/><use transform="matrix(0.05,0,0,0.05,37.95,0)" xlink:href="#V"/><use transform="matrix(0.05,0,0,0.05,49.95,0)" xlink:href="#W"/><use transform="matrix(0.05,0,0,0.05,59.95,0)" xlink:href="#M"/><use transform="matrix(0.05,0,0,0.05,63.900000000000006,0)" xlink:href="#X"/><use transform="matrix(0.05,0,0,0.05,73.9,0)" xlink:href="#U"/></g><path fill="#333" d="M137 0h-34L2-248h35l83 218 83-218h36" id="Y"/><path fill="#333" d="M212-179c-10-28-35-45-73-45-59 0-87 40-87 99 0 60 29 101 89 101 43 0 62-24 78-52l27 14C228-24 195 4 139 4 59 4 22-46 18-125c-6-104 99-153 187-111 19 9 31 26 39 46" id="Z"/><path fill="#333" d="M197 0v-115H63V0H30v-248h33v105h134v-105h34V0h-34" id="aa"/><path fill="#333" d="M54-142c48-35 137-8 131 61C196 18 31 33 14-55l32-4c7 23 22 37 52 37 35-1 51-22 54-58 4-55-73-65-99-34H22l8-134h141v27H59" id="ab"/><path fill="#333" d="M101-251c68 0 85 55 85 127S166 4 100 4C33 4 14-52 14-124c0-73 17-127 87-127zm-1 229c47 0 54-49 54-102s-4-102-53-102c-51 0-55 48-55 102 0 53 5 102 54 102" id="ac"/><g id="k"><use transform="matrix(0.05,0,0,0.05,0,0)" xlink:href="#Y"/><use transform="matrix(0.05,0,0,0.05,10.65,0)" xlink:href="#O"/><use transform="matrix(0.05,0,0,0.05,22.65,0)" xlink:href="#u"/><use transform="matrix(0.05,0,0,0.05,35.6,0)" xlink:href="#Z"/><use transform="matrix(0.05,0,0,0.05,48.550000000000004,0)" xlink:href="#aa"/><use transform="matrix(0.05,0,0,0.05,61.5,0)" xlink:href="#O"/><use transform="matrix(0.05,0,0,0.05,73.5,0)" xlink:href="#u"/><use transform="matrix(0.05,0,0,0.05,86.45,0)" xlink:href="#F"/><use transform="matrix(0.05,0,0,0.05,92.4,0)" xlink:href="#ab"/><use transform="matrix(0.05,0,0,0.05,102.4,0)" xlink:href="#ac"/><use transform="matrix(0.05,0,0,0.05,112.4,0)" xlink:href="#H"/></g><path fill="#333" d="M135-143c-3-34-86-38-87 0 15 53 115 12 119 90S17 21 10-45l28-5c4 36 97 45 98 0-10-56-113-15-118-90-4-57 82-63 122-42 12 7 21 19 24 35" id="ad"/><g id="l"><use transform="matrix(0.05,0,0,0.05,0,0)" xlink:href="#z"/><use transform="matrix(0.05,0,0,0.05,12.950000000000001,0)" xlink:href="#x"/><use transform="matrix(0.05,0,0,0.05,22.950000000000003,0)" xlink:href="#ad"/><use transform="matrix(0.05,0,0,0.05,31.950000000000003,0)" xlink:href="#U"/><use transform="matrix(0.05,0,0,0.05,36.95,0)" xlink:href="#M"/><use transform="matrix(0.05,0,0,0.05,40.900000000000006,0)" xlink:href="#X"/><use transform="matrix(0.05,0,0,0.05,50.900000000000006,0)" xlink:href="#v"/><use transform="matrix(0.05,0,0,0.05,60.900000000000006,0)" xlink:href="#U"/><use transform="matrix(0.05,0,0,0.05,65.9,0)" xlink:href="#M"/><use transform="matrix(0.05,0,0,0.05,69.85000000000001,0)" xlink:href="#W"/><use transform="matrix(0.05,0,0,0.05,79.85000000000001,0)" xlink:href="#X"/><use transform="matrix(0.05,0,0,0.05,89.85000000000001,0)" xlink:href="#V"/><use transform="matrix(0.05,0,0,0.05,101.85000000000001,0)" xlink:href="#W"/><use transform="matrix(0.05,0,0,0.05,111.85000000000001,0)" xlink:href="#M"/><use transform="matrix(0.05,0,0,0.05,115.80000000000001,0)" xlink:href="#X"/><use transform="matrix(0.05,0,0,0.05,125.80000000000001,0)" xlink:href="#U"/></g><g id="m"><use transform="matrix(0.05,0,0,0.05,0,0)" xlink:href="#Y"/><use transform="matrix(0.05,0,0,0.05,10.65,0)" xlink:href="#O"/><use transform="matrix(0.05,0,0,0.05,22.65,0)" xlink:href="#u"/><use transform="matrix(0.05,0,0,0.05,35.6,0)" xlink:href="#Z"/><use transform="matrix(0.05,0,0,0.05,48.550000000000004,0)" xlink:href="#aa"/><use transform="matrix(0.05,0,0,0.05,61.5,0)" xlink:href="#O"/><use transform="matrix(0.05,0,0,0.05,73.5,0)" xlink:href="#u"/><use transform="matrix(0.05,0,0,0.05,86.45,0)" xlink:href="#F"/><use transform="matrix(0.05,0,0,0.05,92.4,0)" xlink:href="#ab"/><use transform="matrix(0.05,0,0,0.05,102.4,0)" xlink:href="#ac"/><use transform="matrix(0.05,0,0,0.05,112.4,0)" xlink:href="#H"/></g></defs></g></svg>