<svg xmlns="http://www.w3.org/2000/svg" xmlns:xlink="http://www.w3.org/1999/xlink" xmlns:lucid="lucid" width="361" height="219"><g transform="translate(-499.5 -119.5)" lucid:page-tab-id="0_0"><path d="M500 0h500v500H500z" fill="#fff"/><path d="M520 145a5 5 0 0 1 5-5h310a5 5 0 0 1 5 5v168a5 5 0 0 1-5 5H525a5 5 0 0 1-5-5z" fill="#fff"/><path d="M520 180v-35a5 5 0 0 1 5-5h310a5 5 0 0 1 5 5v35" fill="#c3f7c8"/><path d="M520 145a5 5 0 0 1 5-5h310a5 5 0 0 1 5 5v168a5 5 0 0 1-5 5H525a5 5 0 0 1-5-5zM520 180h320M580 180v138" stroke="#282c33" fill="none"/><use xlink:href="#a" transform="matrix(1,0,0,1,530,140) translate(122.375 23.6)"/><use xlink:href="#b" transform="matrix(1,0,0,1,525,182.5) translate(13 17.1)"/><use xlink:href="#c" transform="matrix(1,0,0,1,585,182.5) translate(0 17.1)"/><use xlink:href="#d" transform="matrix(1,0,0,1,585,182.5) translate(75.2 17.1)"/><use xlink:href="#e" transform="matrix(1,0,0,1,525,214.5) translate(13.524999999999999 27.6)"/><use xlink:href="#f" transform="matrix(1,0,0,1,585,214.5) translate(0 16.799999999999997)"/><use xlink:href="#g" transform="matrix(1,0,0,1,585,214.5) translate(69.9 16.799999999999997)"/><use xlink:href="#h" transform="matrix(1,0,0,1,585,214.5) translate(174.60000000000002 16.799999999999997)"/><use xlink:href="#i" transform="matrix(1,0,0,1,585,214.5) translate(0 38.4)"/><g><use xlink:href="#j" transform="matrix(1,0,0,1,585,267.5) translate(0 16.799999999999997)"/><use xlink:href="#k" transform="matrix(1,0,0,1,585,267.5) translate(110.85000000000001 16.799999999999997)"/><use xlink:href="#l" transform="matrix(1,0,0,1,585,267.5) translate(0 38.4)"/><use xlink:href="#i" transform="matrix(1,0,0,1,585,267.5) translate(42.550000000000004 38.4)"/></g><defs><path d="M127-220V0H93v-220H8v-28h204v28h-85" id="m"/><path d="M24-231v-30h32v30H24zM24 0v-190h32V0H24" id="n"/><path d="M96-169c-40 0-48 33-48 73s9 75 48 75c24 0 41-14 43-38l32 2c-6 37-31 61-74 61-59 0-76-41-82-99-10-93 101-131 147-64 4 7 5 14 7 22l-32 3c-4-21-16-35-41-35" id="o"/><path d="M143 0L79-87 56-68V0H24v-261h32v163l83-92h37l-77 82L181 0h-38" id="p"/><path d="M100-194c63 0 86 42 84 106H49c0 40 14 67 53 68 26 1 43-12 49-29l28 8c-11 28-37 45-77 45C44 4 14-33 15-96c1-61 26-98 85-98zm52 81c6-60-76-77-97-28-3 7-6 17-6 28h103" id="q"/><path d="M59-47c-2 24 18 29 38 22v24C64 9 27 4 27-40v-127H5v-23h24l9-43h21v43h35v23H59v120" id="r"/><path d="M135-143c-3-34-86-38-87 0 15 53 115 12 119 90S17 21 10-45l28-5c4 36 97 45 98 0-10-56-113-15-118-90-4-57 82-63 122-42 12 7 21 19 24 35" id="s"/><g id="a"><use transform="matrix(0.05,0,0,0.05,0,0)" xlink:href="#m"/><use transform="matrix(0.05,0,0,0.05,10.3,0)" xlink:href="#n"/><use transform="matrix(0.05,0,0,0.05,14.25,0)" xlink:href="#o"/><use transform="matrix(0.05,0,0,0.05,23.25,0)" xlink:href="#p"/><use transform="matrix(0.05,0,0,0.05,32.25,0)" xlink:href="#q"/><use transform="matrix(0.05,0,0,0.05,42.25,0)" xlink:href="#r"/><use transform="matrix(0.05,0,0,0.05,47.25,0)" xlink:href="#s"/></g><path d="M30-248c87 1 191-15 191 75 0 78-77 80-158 76V0H30v-248zm33 125c57 0 124 11 124-50 0-59-68-47-124-48v98" id="t"/><path d="M194 0L95-120 63-95V0H30v-248h33v124l119-124h40L117-140 236 0h-42" id="u"/><g id="b"><use transform="matrix(0.05,0,0,0.05,0,0)" xlink:href="#t"/><use transform="matrix(0.05,0,0,0.05,12,0)" xlink:href="#u"/></g><path fill="#333" d="M127-220V0H93v-220H8v-28h204v28h-85" id="v"/><path fill="#333" d="M24-231v-30h32v30H24zM24 0v-190h32V0H24" id="w"/><path fill="#333" d="M96-169c-40 0-48 33-48 73s9 75 48 75c24 0 41-14 43-38l32 2c-6 37-31 61-74 61-59 0-76-41-82-99-10-93 101-131 147-64 4 7 5 14 7 22l-32 3c-4-21-16-35-41-35" id="x"/><path fill="#333" d="M143 0L79-87 56-68V0H24v-261h32v163l83-92h37l-77 82L181 0h-38" id="y"/><path fill="#333" d="M100-194c63 0 86 42 84 106H49c0 40 14 67 53 68 26 1 43-12 49-29l28 8c-11 28-37 45-77 45C44 4 14-33 15-96c1-61 26-98 85-98zm52 81c6-60-76-77-97-28-3 7-6 17-6 28h103" id="z"/><path fill="#333" d="M59-47c-2 24 18 29 38 22v24C64 9 27 4 27-40v-127H5v-23h24l9-43h21v43h35v23H59v120" id="A"/><path fill="#333" d="M33 0v-248h34V0H33" id="B"/><path fill="#333" d="M30-248c118-7 216 8 213 122C240-48 200 0 122 0H30v-248zM63-27c89 8 146-16 146-99s-60-101-146-95v194" id="C"/><g id="c"><use transform="matrix(0.05,0,0,0.05,0,0)" xlink:href="#v"/><use transform="matrix(0.05,0,0,0.05,10.3,0)" xlink:href="#w"/><use transform="matrix(0.05,0,0,0.05,14.25,0)" xlink:href="#x"/><use transform="matrix(0.05,0,0,0.05,23.25,0)" xlink:href="#y"/><use transform="matrix(0.05,0,0,0.05,32.25,0)" xlink:href="#z"/><use transform="matrix(0.05,0,0,0.05,42.25,0)" xlink:href="#A"/><use transform="matrix(0.05,0,0,0.05,47.25,0)" xlink:href="#B"/><use transform="matrix(0.05,0,0,0.05,52.25,0)" xlink:href="#C"/></g><path fill="#333" d="M190 0L58-211 59 0H30v-248h39L202-35l-2-213h31V0h-41" id="D"/><path fill="#333" d="M232-93c-1 65-40 97-104 97C67 4 28-28 28-90v-158h33c8 89-33 224 67 224 102 0 64-133 71-224h33v155" id="E"/><path fill="#333" d="M240 0l2-218c-23 76-54 145-80 218h-23L58-218 59 0H30v-248h44l77 211c21-75 51-140 76-211h43V0h-30" id="F"/><path fill="#333" d="M160-131c35 5 61 23 61 61C221 17 115-2 30 0v-248c76 3 177-17 177 60 0 33-19 50-47 57zm-97-11c50-1 110 9 110-42 0-47-63-36-110-37v79zm0 115c55-2 124 14 124-45 0-56-70-42-124-44v89" id="G"/><path fill="#333" d="M30 0v-248h187v28H63v79h144v27H63v87h162V0H30" id="H"/><path fill="#333" d="M233-177c-1 41-23 64-60 70L243 0h-38l-65-103H63V0H30v-248c88 3 205-21 203 71zM63-129c60-2 137 13 137-47 0-61-80-42-137-45v92" id="I"/><path fill="#333" d="M87 75C49 33 22-17 22-94c0-76 28-126 65-167h31c-38 41-64 92-64 168S80 34 118 75H87" id="J"/><path fill="#333" d="M110-160c48 1 74 30 74 79 0 53-28 85-80 85-65 0-83-55-86-122-5-90 50-162 133-122 14 7 22 21 27 39l-31 6c-5-40-67-38-82-6-9 19-15 44-15 74 11-20 30-34 60-33zm-7 138c34 0 49-23 49-58s-16-56-50-56c-29 0-50 16-49 49 1 36 15 65 50 65" id="K"/><path fill="#333" d="M33-261c38 41 65 92 65 168S71 34 33 75H2C39 34 66-17 66-93S39-220 2-261h31" id="L"/><g id="d"><use transform="matrix(0.05,0,0,0.05,0,0)" xlink:href="#D"/><use transform="matrix(0.05,0,0,0.05,12.950000000000001,0)" xlink:href="#E"/><use transform="matrix(0.05,0,0,0.05,25.900000000000002,0)" xlink:href="#F"/><use transform="matrix(0.05,0,0,0.05,40.85,0)" xlink:href="#G"/><use transform="matrix(0.05,0,0,0.05,52.85,0)" xlink:href="#H"/><use transform="matrix(0.05,0,0,0.05,64.85,0)" xlink:href="#I"/><use transform="matrix(0.05,0,0,0.05,77.8,0)" xlink:href="#J"/><use transform="matrix(0.05,0,0,0.05,83.75,0)" xlink:href="#K"/><use transform="matrix(0.05,0,0,0.05,93.75,0)" xlink:href="#L"/></g><path d="M63-220v92h138v28H63V0H30v-248h175v28H63" id="M"/><g id="e"><use transform="matrix(0.05,0,0,0.05,0,0)" xlink:href="#M"/><use transform="matrix(0.05,0,0,0.05,10.950000000000001,0)" xlink:href="#u"/></g><path fill="#333" d="M141-36C126-15 110 5 73 4 37 3 15-17 15-53c-1-64 63-63 125-63 3-35-9-54-41-54-24 1-41 7-42 31l-33-3c5-37 33-52 76-52 45 0 72 20 72 64v82c-1 20 7 32 28 27v20c-31 9-61-2-59-35zM48-53c0 20 12 33 32 33 41-3 63-29 60-74-43 2-92-5-92 41" id="N"/><g id="f"><use transform="matrix(0.05,0,0,0.05,0,0)" xlink:href="#I"/><use transform="matrix(0.05,0,0,0.05,12.950000000000001,0)" xlink:href="#N"/><use transform="matrix(0.05,0,0,0.05,22.950000000000003,0)" xlink:href="#x"/><use transform="matrix(0.05,0,0,0.05,31.950000000000003,0)" xlink:href="#z"/><use transform="matrix(0.05,0,0,0.05,41.95,0)" xlink:href="#B"/><use transform="matrix(0.05,0,0,0.05,46.95,0)" xlink:href="#C"/></g><path fill="#333" d="M64 0c3-98 48-159 88-221H18v-27h164v26C143-157 98-101 97 0H64" id="O"/><g id="g"><use transform="matrix(0.05,0,0,0.05,0,0)" xlink:href="#D"/><use transform="matrix(0.05,0,0,0.05,12.950000000000001,0)" xlink:href="#E"/><use transform="matrix(0.05,0,0,0.05,25.900000000000002,0)" xlink:href="#F"/><use transform="matrix(0.05,0,0,0.05,40.85,0)" xlink:href="#G"/><use transform="matrix(0.05,0,0,0.05,52.85,0)" xlink:href="#H"/><use transform="matrix(0.05,0,0,0.05,64.85,0)" xlink:href="#I"/><use transform="matrix(0.05,0,0,0.05,77.8,0)" xlink:href="#J"/><use transform="matrix(0.05,0,0,0.05,83.75,0)" xlink:href="#O"/><use transform="matrix(0.05,0,0,0.05,93.75,0)" xlink:href="#L"/></g><path fill="#333" d="M140-251c81 0 123 46 123 126C263-46 219 4 140 4 59 4 17-45 17-125s42-126 123-126zm0 227c63 0 89-41 89-101s-29-99-89-99c-61 0-89 39-89 99S79-25 140-24" id="P"/><g id="h"><use transform="matrix(0.05,0,0,0.05,0,0)" xlink:href="#D"/><use transform="matrix(0.05,0,0,0.05,12.950000000000001,0)" xlink:href="#P"/><use transform="matrix(0.05,0,0,0.05,26.950000000000003,0)" xlink:href="#v"/></g><path fill="#333" d="M30 0v-248h33v221h125V0H30" id="Q"/><g id="i"><use transform="matrix(0.05,0,0,0.05,0,0)" xlink:href="#D"/><use transform="matrix(0.05,0,0,0.05,12.950000000000001,0)" xlink:href="#E"/><use transform="matrix(0.05,0,0,0.05,25.900000000000002,0)" xlink:href="#Q"/><use transform="matrix(0.05,0,0,0.05,35.900000000000006,0)" xlink:href="#Q"/></g><path fill="#333" d="M185-189c-5-48-123-54-124 2 14 75 158 14 163 119 3 78-121 87-175 55-17-10-28-26-33-46l33-7c5 56 141 63 141-1 0-78-155-14-162-118-5-82 145-84 179-34 5 7 8 16 11 25" id="R"/><path fill="#333" d="M84 4C-5 8 30-112 23-190h32v120c0 31 7 50 39 49 72-2 45-101 50-169h31l1 190h-30c-1-10 1-25-2-33-11 22-28 36-60 37" id="S"/><path fill="#333" d="M210-169c-67 3-38 105-44 169h-31v-121c0-29-5-50-35-48C34-165 62-65 56 0H25l-1-190h30c1 10-1 24 2 32 10-44 99-50 107 0 11-21 27-35 58-36 85-2 47 119 55 194h-31v-121c0-29-5-49-35-48" id="T"/><path fill="#333" d="M115-194c53 0 69 39 70 98 0 66-23 100-70 100C84 3 66-7 56-30L54 0H23l1-261h32v101c10-23 28-34 59-34zm-8 174c40 0 45-34 45-75 0-40-5-75-45-74-42 0-51 32-51 76 0 43 10 73 51 73" id="U"/><path fill="#333" d="M114-163C36-179 61-72 57 0H25l-1-190h30c1 12-1 29 2 39 6-27 23-49 58-41v29" id="V"/><g id="j"><use transform="matrix(0.05,0,0,0.05,0,0)" xlink:href="#R"/><use transform="matrix(0.05,0,0,0.05,12,0)" xlink:href="#z"/><use transform="matrix(0.05,0,0,0.05,22,0)" xlink:href="#N"/><use transform="matrix(0.05,0,0,0.05,32,0)" xlink:href="#A"/><use transform="matrix(0.05,0,0,0.05,37,0)" xlink:href="#D"/><use transform="matrix(0.05,0,0,0.05,49.95,0)" xlink:href="#S"/><use transform="matrix(0.05,0,0,0.05,59.95,0)" xlink:href="#T"/><use transform="matrix(0.05,0,0,0.05,74.9,0)" xlink:href="#U"/><use transform="matrix(0.05,0,0,0.05,84.9,0)" xlink:href="#z"/><use transform="matrix(0.05,0,0,0.05,94.9,0)" xlink:href="#V"/></g><path fill="#333" d="M54-142c48-35 137-8 131 61C196 18 31 33 14-55l32-4c7 23 22 37 52 37 35-1 51-22 54-58 4-55-73-65-99-34H22l8-134h141v27H59" id="W"/><g id="k"><use transform="matrix(0.05,0,0,0.05,0,0)" xlink:href="#D"/><use transform="matrix(0.05,0,0,0.05,12.950000000000001,0)" xlink:href="#E"/><use transform="matrix(0.05,0,0,0.05,25.900000000000002,0)" xlink:href="#F"/><use transform="matrix(0.05,0,0,0.05,40.85,0)" xlink:href="#G"/><use transform="matrix(0.05,0,0,0.05,52.85,0)" xlink:href="#H"/><use transform="matrix(0.05,0,0,0.05,64.85,0)" xlink:href="#I"/><use transform="matrix(0.05,0,0,0.05,77.8,0)" xlink:href="#J"/><use transform="matrix(0.05,0,0,0.05,83.75,0)" xlink:href="#W"/><use transform="matrix(0.05,0,0,0.05,93.75,0)" xlink:href="#L"/></g><g id="l"><use transform="matrix(0.05,0,0,0.05,0,0)" xlink:href="#D"/><use transform="matrix(0.05,0,0,0.05,12.950000000000001,0)" xlink:href="#P"/><use transform="matrix(0.05,0,0,0.05,26.950000000000003,0)" xlink:href="#v"/></g></defs></g></svg>